{"accessors" : [{"bufferView" : 0, "byteOffset" : 0, "componentType" : 5123, "count" : 21, "type" : "SCALAR", "max" : [20], "min" : [0]}, {"bufferView" : 1, "byteOffset" : 0, "componentType" : 5126, "count" : 21, "type" : "VEC3", "max" : [10.197035789489746, 5, 0], "min" : [-6.496912942547337E+35, -421448712192, -3.621129886319694E+29], "name" : "POSITION"}, {"bufferView" : 1, "byteOffset" : 12, "componentType" : 5126, "count" : 21, "type" : "VEC3", "max" : [1.0000044107437134, 0, 0], "min" : [-1.0000044107437134, 0, -1.000003457069397], "name" : "NORMAL"}], "asset" : {"generator" : "Aspose.3D 21.11", "version" : "2.0"}, "buffers" : [{"uri" : "data:application/octet-stream;base64,", "byteLength" : 556}], "bufferViews" : [{"buffer" : 0, "byteOffset" : 0, "byteLength" : 44, "target" : 34963}, {"buffer" : 0, "byteOffset" : 48, "byteLength" : 504, "byteStride" : 24, "target" : 34962}], "meshes" : [{"primitives" : [{"attributes" : {"POSITION" : 1, "NORMAL" : 2}, "indices" : 0, "mode" : 4}], "name" : ""}], "nodes" : [{"mesh" : 0, "name" : ""}], "scene" : 0, "scenes" : [{"nodes" : [0]}]}