{"accessors" : [{"bufferView" : 0, "byteOffset" : 0, "componentType" : 5123, "count" : 33, "type" : "SCALAR", "max" : [32], "min" : [0]}, {"bufferView" : 1, "byteOffset" : 0, "componentType" : 5126, "count" : 33, "type" : "VEC3", "max" : [858993459200, 1.1630744963118014E+36, 246290604621824], "min" : [-0.7749743461608887, -3.3942009095625575E+21, -9.822522284368862E+23], "name" : "POSITION"}, {"bufferView" : 1, "byteOffset" : 12, "componentType" : 5126, "count" : 33, "type" : "VEC3", "max" : [0.9461348652839661, 0.9791910648345947, 0.2029571831226349], "min" : [-0.7764749526977539, -0.9451096057891846, -0.9057784080505371], "name" : "NORMAL"}], "asset" : {"generator" : "Aspose.3D 21.11", "version" : "2.0"}, "buffers" : [{"uri" : "data:application/octet-stream;base64,", "byteLength" : 868}], "bufferViews" : [{"buffer" : 0, "byteOffset" : 0, "byteLength" : 68, "target" : 34963}, {"buffer" : 0, "byteOffset" : 72, "byteLength" : 792, "byteStride" : 24, "target" : 34962}], "meshes" : [{"primitives" : [{"attributes" : {"POSITION" : 1, "NORMAL" : 2}, "indices" : 0, "mode" : 4}], "name" : ""}], "nodes" : [{"mesh" : 0, "name" : ""}], "scene" : 0, "scenes" : [{"nodes" : [0]}]}